<svg id="svg" version="1.1" xmlns="http://www.w3.org/2000/svg" xmlns:xlink="http://www.w3.org/1999/xlink" width="400" height="390.6432748538012" viewBox="0, 0, 400,390.6432748538012"><g id="svgg"><path id="path0" d="M177.579 26.979 L 176.712 28.152 169.368 28.152 L 162.024 28.152 161.157 29.326 C 160.301 30.482,160.239 30.499,156.660 30.499 C 153.137 30.499,152.997 30.533,151.906 31.672 C 150.818 32.808,150.669 32.845,147.206 32.845 C 143.724 32.845,143.601 32.876,142.584 34.018 C 141.631 35.087,141.320 35.191,139.065 35.191 C 136.809 35.191,136.499 35.294,135.545 36.364 C 134.592 37.433,134.282 37.537,132.026 37.537 C 129.771 37.537,129.460 37.640,128.507 38.710 C 127.742 39.569,127.114 39.883,126.161 39.883 C 125.209 39.883,124.581 40.197,123.815 41.056 C 123.057 41.907,122.419 42.229,121.492 42.229 C 120.561 42.229,119.934 42.547,119.184 43.402 C 118.247 44.470,117.936 44.575,115.714 44.575 L 113.273 44.575 110.984 46.921 C 109.108 48.844,108.465 49.267,107.416 49.267 C 106.484 49.267,105.858 49.585,105.108 50.440 C 104.361 51.290,103.730 51.613,102.810 51.613 C 101.776 51.613,101.122 52.044,99.254 53.959 C 97.415 55.845,96.724 56.305,95.735 56.305 C 94.746 56.305,94.055 56.765,92.216 58.651 C 90.384 60.529,89.684 60.997,88.707 60.997 C 87.655 60.997,86.708 61.781,81.856 66.667 C 77.033 71.524,76.054 72.336,75.020 72.336 C 73.229 72.336,65.298 80.269,65.298 82.061 C 65.298 83.100,64.475 84.087,59.433 89.086 C 54.333 94.143,53.568 95.063,53.568 96.139 C 53.568 97.183,53.015 97.918,50.049 100.817 C 46.918 103.877,46.530 104.411,46.530 105.651 C 46.530 106.707,46.293 107.201,45.552 107.686 C 44.820 108.166,44.575 108.668,44.575 109.684 C 44.575 110.828,44.206 111.401,42.229 113.330 C 40.223 115.286,39.883 115.822,39.883 117.020 C 39.883 118.131,39.640 118.595,38.710 119.257 C 37.786 119.914,37.537 120.386,37.537 121.470 C 37.537 122.510,37.250 123.098,36.364 123.876 C 35.496 124.637,35.191 125.248,35.191 126.222 C 35.191 127.196,34.885 127.807,34.018 128.568 C 32.933 129.520,32.845 129.795,32.845 132.221 C 32.845 134.689,32.775 134.893,31.672 135.679 C 30.573 136.461,30.499 136.678,30.499 139.065 C 30.499 141.409,30.404 141.698,29.326 142.644 C 28.253 143.586,28.152 143.886,28.152 146.163 C 28.152 148.440,28.052 148.741,26.979 149.682 C 25.833 150.689,25.806 150.794,25.806 154.375 C 25.806 157.955,25.780 158.060,24.633 159.067 L 23.460 160.096 23.460 166.105 L 23.460 172.114 22.287 173.143 L 21.114 174.172 21.114 191.984 L 21.114 209.797 22.287 210.826 L 23.460 211.855 23.460 217.864 L 23.460 223.873 24.633 224.902 C 25.780 225.908,25.806 226.014,25.806 229.594 C 25.806 233.175,25.833 233.280,26.979 234.286 C 28.052 235.228,28.152 235.528,28.152 237.805 C 28.152 240.082,28.253 240.383,29.326 241.324 C 30.398 242.266,30.499 242.566,30.499 244.843 C 30.499 247.120,30.599 247.421,31.672 248.362 C 32.744 249.304,32.845 249.605,32.845 251.882 C 32.845 254.159,32.945 254.459,34.018 255.401 C 34.885 256.162,35.191 256.773,35.191 257.747 C 35.191 258.720,35.496 259.332,36.364 260.093 C 37.231 260.854,37.537 261.465,37.537 262.439 C 37.537 263.412,37.842 264.024,38.710 264.785 C 39.577 265.546,39.883 266.157,39.883 267.131 C 39.883 268.104,40.188 268.716,41.056 269.477 C 41.912 270.228,42.229 270.853,42.229 271.790 C 42.229 272.836,42.626 273.452,44.379 275.123 C 46.134 276.796,46.530 277.409,46.530 278.459 C 46.530 279.522,46.937 280.132,48.876 281.977 C 50.797 283.805,51.222 284.438,51.222 285.471 C 51.222 286.565,51.845 287.347,55.914 291.364 C 59.902 295.299,60.606 296.176,60.606 297.205 C 60.606 299.025,75.557 313.978,77.377 313.978 C 78.398 313.978,79.269 314.671,83.031 318.475 C 86.820 322.306,87.659 322.972,88.703 322.972 C 89.685 322.972,90.381 323.437,92.216 325.318 C 94.055 327.203,94.746 327.664,95.735 327.664 C 96.724 327.664,97.415 328.124,99.254 330.010 C 101.122 331.924,101.776 332.356,102.810 332.356 C 103.730 332.356,104.361 332.678,105.108 333.529 C 105.858 334.383,106.484 334.702,107.416 334.702 C 108.465 334.702,109.108 335.125,110.984 337.048 L 113.273 339.394 115.714 339.394 C 117.936 339.394,118.247 339.499,119.184 340.567 C 119.934 341.421,120.561 341.740,121.492 341.740 C 122.419 341.740,123.057 342.062,123.815 342.913 C 124.581 343.772,125.209 344.086,126.161 344.086 C 127.114 344.086,127.742 344.400,128.507 345.259 C 129.460 346.329,129.771 346.432,132.026 346.432 C 134.282 346.432,134.592 346.535,135.545 347.605 C 136.499 348.675,136.809 348.778,139.065 348.778 C 141.320 348.778,141.631 348.881,142.584 349.951 C 143.534 351.018,143.850 351.124,146.071 351.124 C 148.304 351.124,148.597 351.224,149.500 352.297 L 150.487 353.470 155.388 353.470 L 160.289 353.470 161.157 354.643 L 162.024 355.816 169.368 355.816 L 176.712 355.816 177.579 356.989 L 178.446 358.162 197.654 358.162 L 216.862 358.162 217.729 356.989 L 218.596 355.816 225.940 355.816 L 233.284 355.816 234.151 354.643 C 235.012 353.479,235.047 353.470,238.843 353.470 C 242.640 353.470,242.675 353.461,243.535 352.297 C 244.351 351.194,244.561 351.124,247.054 351.124 C 249.548 351.124,249.758 351.054,250.574 349.951 C 251.377 348.864,251.621 348.778,253.897 348.778 C 256.117 348.778,256.463 348.665,257.478 347.605 C 258.488 346.551,258.845 346.432,261.006 346.432 C 263.184 346.432,263.508 346.322,264.455 345.259 C 265.220 344.400,265.848 344.086,266.801 344.086 C 267.753 344.086,268.381 343.772,269.147 342.913 C 270.100 341.843,270.410 341.740,272.666 341.740 C 274.921 341.740,275.232 341.637,276.185 340.567 C 276.943 339.716,277.581 339.394,278.508 339.394 C 279.562 339.394,280.178 338.982,282.016 337.048 C 283.862 335.105,284.468 334.702,285.535 334.702 C 286.479 334.702,287.101 334.387,287.854 333.529 C 288.615 332.661,289.227 332.356,290.200 332.356 C 291.174 332.356,291.785 332.050,292.546 331.183 C 293.290 330.335,293.925 330.010,294.835 330.010 C 295.903 330.010,296.625 329.474,299.574 326.491 C 302.471 323.560,303.257 322.972,304.269 322.972 C 305.300 322.972,306.157 322.292,309.931 318.475 C 313.693 314.671,314.564 313.978,315.585 313.978 C 317.405 313.978,332.356 299.025,332.356 297.205 C 332.356 296.176,333.060 295.299,337.048 291.364 C 341.117 287.347,341.740 286.565,341.740 285.471 C 341.740 284.438,342.165 283.805,344.086 281.977 C 346.026 280.131,346.432 279.522,346.432 278.458 C 346.432 277.394,346.838 276.785,348.778 274.939 C 350.782 273.032,351.124 272.505,351.124 271.324 C 351.124 270.242,351.379 269.754,352.297 269.075 C 353.248 268.372,353.470 267.921,353.470 266.700 C 353.470 265.524,353.685 265.052,354.448 264.552 C 355.188 264.067,355.425 263.573,355.425 262.517 C 355.425 261.456,355.706 260.875,356.598 260.093 C 357.466 259.332,357.771 258.720,357.771 257.747 C 357.771 256.773,358.077 256.162,358.944 255.401 C 360.017 254.459,360.117 254.159,360.117 251.882 C 360.117 249.605,360.218 249.304,361.290 248.362 C 362.158 247.601,362.463 246.990,362.463 246.016 C 362.463 245.043,362.769 244.432,363.636 243.670 C 364.783 242.664,364.809 242.559,364.809 238.978 C 364.809 235.398,364.836 235.292,365.982 234.286 C 367.129 233.280,367.155 233.175,367.155 229.594 C 367.155 226.014,367.182 225.908,368.328 224.902 L 369.501 223.873 369.501 217.902 L 369.501 211.932 370.674 210.887 L 371.848 209.841 371.848 192.007 L 371.848 174.172 370.674 173.143 L 369.501 172.114 369.501 166.105 L 369.501 160.096 368.328 159.067 C 367.182 158.060,367.155 157.955,367.155 154.375 C 367.155 150.794,367.129 150.689,365.982 149.682 C 364.836 148.676,364.809 148.571,364.809 144.990 C 364.809 141.410,364.783 141.304,363.636 140.298 C 362.769 139.537,362.463 138.926,362.463 137.952 C 362.463 136.979,362.158 136.367,361.290 135.606 C 360.218 134.665,360.117 134.364,360.117 132.087 C 360.117 129.810,360.017 129.509,358.944 128.568 C 358.077 127.807,357.771 127.196,357.771 126.222 C 357.771 125.248,357.466 124.637,356.598 123.876 C 355.706 123.094,355.425 122.512,355.425 121.452 C 355.425 120.396,355.188 119.902,354.448 119.417 C 353.685 118.917,353.470 118.445,353.470 117.269 C 353.470 116.047,353.248 115.597,352.297 114.894 C 351.379 114.215,351.124 113.727,351.124 112.645 C 351.124 111.464,350.782 110.937,348.778 109.030 C 346.838 107.184,346.432 106.575,346.432 105.511 C 346.432 104.447,346.026 103.838,344.086 101.992 C 342.165 100.163,341.740 99.531,341.740 98.498 C 341.740 97.404,341.117 96.621,337.048 92.605 C 333.060 88.669,332.356 87.792,332.356 86.764 C 332.356 84.944,317.405 69.990,315.585 69.990 C 314.564 69.990,313.693 69.298,309.931 65.494 C 306.142 61.662,305.303 60.997,304.259 60.997 C 303.277 60.997,302.581 60.532,300.746 58.651 C 298.907 56.765,298.216 56.305,297.227 56.305 C 296.238 56.305,295.547 55.845,293.708 53.959 C 291.840 52.044,291.186 51.613,290.151 51.613 C 289.232 51.613,288.601 51.290,287.854 50.440 C 287.104 49.585,286.478 49.267,285.546 49.267 C 284.497 49.267,283.854 48.844,281.978 46.921 L 279.689 44.575 277.287 44.575 C 275.110 44.575,274.786 44.464,273.839 43.402 C 273.073 42.543,272.445 42.229,271.493 42.229 C 270.540 42.229,269.912 41.915,269.147 41.056 C 268.381 40.197,267.753 39.883,266.801 39.883 C 265.848 39.883,265.220 39.569,264.455 38.710 C 263.501 37.640,263.191 37.537,260.935 37.537 C 258.680 37.537,258.369 37.433,257.416 36.364 C 256.469 35.301,256.145 35.191,253.967 35.191 C 251.807 35.191,251.450 35.072,250.440 34.018 C 249.349 32.879,249.209 32.845,245.686 32.845 C 242.107 32.845,242.045 32.828,241.189 31.672 C 240.329 30.507,240.294 30.499,236.497 30.499 C 232.701 30.499,232.666 30.490,231.805 29.326 L 230.938 28.152 223.594 28.152 L 216.250 28.152 215.383 26.979 L 214.516 25.806 196.481 25.806 L 178.446 25.806 177.579 26.979 M208.993 127.775 C 211.704 128.737,212.434 130.177,212.110 133.920 C 211.980 135.425,211.717 145.367,211.525 156.012 C 211.333 166.657,211.037 179.633,210.866 184.848 C 210.696 190.064,210.696 198.597,210.865 203.812 C 211.035 209.027,211.332 221.476,211.525 231.476 C 211.718 241.476,211.987 250.890,212.124 252.395 C 212.347 254.854,212.278 255.271,211.449 256.500 L 210.526 257.869 192.439 257.971 C 181.301 258.033,174.080 257.927,173.644 257.693 C 172.100 256.867,171.938 254.655,172.395 240.609 C 172.966 223.042,172.961 203.714,172.385 202.274 L 171.945 201.173 171.638 202.243 C 171.469 202.831,170.978 203.887,170.545 204.589 C 170.113 205.291,169.366 207.009,168.886 208.407 C 168.406 209.804,167.778 211.310,167.492 211.751 C 167.205 212.193,166.633 213.513,166.222 214.684 C 164.665 219.111,163.669 221.537,163.020 222.486 C 162.651 223.026,162.138 224.258,161.881 225.224 C 161.624 226.189,161.184 227.243,160.903 227.566 C 160.623 227.889,160.111 229.269,159.765 230.635 C 159.419 232.000,158.802 233.541,158.394 234.060 C 157.986 234.579,157.443 235.873,157.188 236.935 C 156.934 237.997,156.481 239.069,156.183 239.316 C 155.885 239.563,155.529 240.408,155.392 241.193 C 155.255 241.978,154.737 243.330,154.241 244.199 C 153.745 245.067,152.956 246.915,152.489 248.304 C 152.022 249.694,151.479 251.026,151.282 251.264 C 151.085 251.503,150.592 252.665,150.186 253.846 C 149.115 256.959,146.917 259.864,145.404 260.167 C 140.602 261.127,135.288 259.320,135.288 256.726 C 135.288 256.446,134.761 255.553,134.115 254.741 C 133.470 253.929,132.942 252.863,132.942 252.371 C 132.942 251.880,132.525 250.980,132.015 250.372 C 131.506 249.764,130.962 248.651,130.807 247.898 C 130.652 247.146,130.130 245.914,129.648 245.161 C 129.166 244.409,128.479 242.928,128.122 241.870 C 127.764 240.813,127.238 239.669,126.952 239.329 C 126.296 238.547,124.179 233.408,123.557 231.089 C 123.298 230.123,122.777 228.891,122.399 228.352 C 122.021 227.812,121.492 226.667,121.223 225.806 C 120.954 224.946,120.450 223.803,120.103 223.265 C 119.263 221.962,117.801 218.529,116.859 215.647 C 116.438 214.360,115.769 212.952,115.372 212.519 C 114.974 212.085,114.526 211.114,114.376 210.362 C 114.226 209.609,113.694 208.360,113.194 207.586 C 112.694 206.811,112.065 205.443,111.796 204.544 C 110.576 200.472,110.458 202.951,110.614 229.362 C 110.699 243.754,110.651 255.896,110.508 256.346 C 109.990 257.980,109.067 258.065,91.653 258.065 C 72.925 258.065,72.984 258.073,72.492 255.447 C 72.222 254.010,72.938 232.571,73.567 223.265 C 74.844 204.361,74.840 188.798,73.552 157.380 C 73.367 152.864,73.080 144.744,72.915 139.336 L 72.614 129.502 73.824 128.876 C 75.431 128.045,108.891 127.918,109.982 128.739 C 110.744 129.312,115.101 137.691,115.510 139.370 C 115.664 140.002,116.137 141.006,116.560 141.601 C 116.984 142.196,117.527 143.263,117.767 143.971 C 118.007 144.679,118.509 145.699,118.882 146.237 C 119.255 146.774,119.796 148.006,120.085 148.974 C 120.374 149.941,121.431 152.342,122.435 154.309 C 123.439 156.276,124.384 158.450,124.536 159.141 C 124.688 159.832,125.238 161.025,125.759 161.793 C 126.280 162.560,126.816 163.641,126.951 164.194 C 127.086 164.748,127.511 165.606,127.895 166.102 C 128.279 166.598,128.894 167.918,129.263 169.035 C 129.631 170.152,130.345 171.678,130.851 172.427 C 131.356 173.176,131.770 173.968,131.772 174.187 C 131.773 174.405,132.055 175.112,132.398 175.758 C 132.741 176.403,133.276 177.770,133.586 178.797 C 133.897 179.823,134.583 181.299,135.111 182.077 C 135.638 182.855,136.070 183.705,136.070 183.965 C 136.070 184.226,136.482 185.214,136.986 186.161 C 137.490 187.108,138.127 188.566,138.402 189.400 C 138.678 190.235,139.339 191.554,139.872 192.331 C 140.405 193.108,140.998 194.148,141.189 194.641 C 141.953 196.604,142.864 194.946,157.584 164.809 C 159.475 160.938,161.121 157.320,161.243 156.768 C 161.365 156.216,161.822 155.353,162.259 154.849 C 162.695 154.346,163.227 153.285,163.441 152.493 C 163.654 151.700,164.174 150.653,164.597 150.166 C 165.019 149.679,165.652 148.288,166.003 147.074 C 166.981 143.692,173.854 129.984,175.040 129.052 C 176.025 128.277,176.539 128.250,190.571 128.244 C 204.161 128.239,207.038 128.042,207.038 127.117 C 207.038 127.097,207.918 127.393,208.993 127.775 M237.146 128.647 C 238.651 128.851,242.610 129.127,245.943 129.261 C 249.277 129.395,252.997 129.750,254.211 130.051 C 257.145 130.776,278.954 130.838,280.620 130.126 C 282.159 129.467,293.951 128.656,305.767 128.396 C 318.129 128.124,318.099 128.114,317.717 132.701 C 317.186 139.060,317.061 146.035,317.450 147.580 C 318.312 151.000,318.463 158.501,317.683 159.145 C 316.857 159.828,303.631 159.809,297.409 159.117 C 295.447 158.899,293.138 158.657,292.278 158.580 C 291.417 158.503,290.230 158.313,289.638 158.158 L 288.563 157.876 288.602 186.171 C 288.623 201.734,288.787 216.667,288.966 219.355 C 289.892 233.283,290.088 237.532,290.200 246.139 C 290.353 257.830,290.270 258.065,285.991 258.065 C 285.026 258.065,283.583 258.352,282.783 258.703 C 280.611 259.657,257.414 259.657,255.242 258.703 C 254.443 258.352,253.099 258.065,252.255 258.065 C 251.325 258.065,250.359 257.769,249.799 257.314 L 248.876 256.564 248.957 242.752 C 249.011 233.594,249.198 228.281,249.510 226.983 C 250.049 224.742,250.273 160.918,249.748 159.042 C 249.404 157.811,248.824 157.724,246.457 158.548 C 244.554 159.211,228.411 160.116,223.529 159.834 C 218.833 159.562,218.385 157.935,220.765 149.804 C 221.518 147.233,221.846 144.864,222.148 139.825 C 222.461 134.589,222.699 132.927,223.295 131.815 C 223.709 131.044,224.047 130.248,224.047 130.046 C 224.047 128.266,229.800 127.652,237.146 128.647 " stroke="none" fill="#dcdcdc" fill-rule="evenodd"></path><path id="path1" d="M205.116 129.325 C 204.955 129.486,198.389 129.618,190.525 129.618 L 176.228 129.619 175.695 131.157 C 175.402 132.003,174.905 132.979,174.590 133.327 C 174.276 133.674,173.754 134.709,173.430 135.626 C 173.107 136.544,172.486 137.746,172.051 138.299 C 171.617 138.852,171.261 139.602,171.261 139.966 C 171.261 140.330,170.755 141.406,170.136 142.357 C 169.517 143.308,168.896 144.728,168.757 145.513 C 168.617 146.297,168.182 147.353,167.789 147.859 C 167.395 148.364,166.862 149.427,166.604 150.220 C 166.345 151.013,165.817 152.069,165.430 152.566 C 165.044 153.063,164.516 154.119,164.257 154.912 C 163.999 155.705,163.462 156.767,163.065 157.272 C 162.668 157.777,162.140 158.975,161.891 159.936 C 161.642 160.896,161.087 162.172,160.657 162.771 C 160.228 163.371,159.618 164.594,159.303 165.489 C 158.987 166.384,158.489 167.389,158.196 167.723 C 157.695 168.294,156.455 171.081,154.845 175.256 C 154.454 176.271,153.764 177.570,153.313 178.144 C 152.862 178.717,152.493 179.488,152.493 179.857 C 152.493 180.226,151.968 181.302,151.327 182.248 C 150.686 183.194,150.158 184.250,150.154 184.594 C 150.150 184.938,149.622 185.994,148.981 186.940 C 148.339 187.887,147.812 188.942,147.808 189.286 C 147.804 189.630,147.276 190.686,146.635 191.632 C 145.993 192.579,145.466 193.565,145.462 193.823 C 145.441 195.179,144.465 196.311,142.969 196.714 L 141.392 197.139 139.738 195.246 C 138.819 194.194,137.903 192.646,137.676 191.763 C 137.452 190.889,136.928 189.865,136.513 189.489 C 136.097 189.113,135.640 188.157,135.496 187.364 C 135.353 186.572,134.833 185.306,134.340 184.550 C 133.848 183.795,133.312 182.739,133.149 182.204 C 132.986 181.669,132.516 180.675,132.105 179.995 C 131.693 179.314,131.098 177.887,130.782 176.823 C 130.465 175.758,129.879 174.468,129.478 173.954 C 129.077 173.441,128.619 172.581,128.459 172.043 C 128.300 171.505,127.844 170.497,127.445 169.801 C 127.047 169.106,126.449 167.622,126.116 166.502 C 125.784 165.383,125.176 164.104,124.765 163.661 C 124.355 163.217,123.809 162.064,123.553 161.098 C 123.296 160.133,122.779 158.901,122.405 158.361 C 122.030 157.822,121.526 156.801,121.286 156.092 C 121.046 155.384,120.510 154.326,120.094 153.743 C 119.678 153.159,119.133 151.891,118.883 150.925 C 118.632 149.959,118.114 148.729,117.731 148.192 C 117.348 147.654,116.809 146.510,116.534 145.650 C 116.258 144.790,115.703 143.724,115.301 143.281 C 114.899 142.838,114.413 141.640,114.222 140.618 C 114.031 139.597,113.519 138.375,113.085 137.904 C 112.650 137.433,112.108 136.363,111.882 135.526 C 111.655 134.690,111.125 133.634,110.703 133.180 C 110.282 132.727,109.779 131.740,109.587 130.987 L 109.237 129.619 92.253 129.619 L 75.269 129.619 75.365 145.455 C 75.419 154.164,75.659 165.601,75.899 170.870 C 76.448 182.905,76.461 203.563,75.927 213.294 C 75.280 225.065,74.639 254.232,74.998 255.523 L 75.325 256.696 90.937 256.805 C 111.209 256.946,109.743 257.621,109.305 248.347 C 108.268 226.389,107.579 200.592,108.006 199.707 C 108.794 198.074,111.821 198.949,112.404 200.978 C 112.719 202.075,114.605 206.307,115.728 208.437 C 116.134 209.206,116.825 210.859,117.265 212.110 C 117.705 213.360,118.322 214.669,118.638 215.018 C 118.954 215.367,119.376 216.383,119.577 217.277 C 119.778 218.171,120.291 219.400,120.718 220.008 C 121.144 220.617,121.795 222.036,122.165 223.163 C 122.534 224.289,122.993 225.308,123.185 225.427 C 123.377 225.545,123.893 226.847,124.331 228.318 C 124.770 229.790,125.386 231.208,125.701 231.470 C 126.017 231.732,126.386 232.588,126.523 233.373 C 126.659 234.157,127.174 235.415,127.667 236.168 C 128.160 236.921,128.685 237.977,128.835 238.514 C 129.140 239.610,131.014 243.820,132.172 246.011 C 132.590 246.801,133.219 248.297,133.570 249.335 C 133.921 250.373,134.515 251.662,134.891 252.199 C 135.266 252.737,135.812 253.848,136.105 254.668 C 137.996 259.971,145.971 260.554,147.369 255.490 C 147.586 254.705,148.015 253.775,148.323 253.424 C 148.631 253.073,149.172 251.774,149.525 250.538 C 149.879 249.301,150.311 248.289,150.486 248.289 C 150.938 248.289,151.711 246.463,151.711 245.393 C 151.711 244.895,152.132 243.867,152.648 243.107 C 153.163 242.348,153.714 241.136,153.871 240.413 C 154.029 239.691,154.663 238.152,155.280 236.993 C 155.898 235.834,156.403 234.584,156.403 234.216 C 156.403 233.848,156.822 232.758,157.335 231.794 C 157.848 230.830,158.398 229.440,158.559 228.706 C 158.719 227.971,159.355 226.422,159.972 225.263 C 160.590 224.103,161.095 222.854,161.095 222.486 C 161.095 222.118,161.507 221.042,162.010 220.095 C 162.514 219.148,163.138 217.670,163.398 216.811 C 163.658 215.952,164.295 214.370,164.814 213.294 C 165.333 212.219,165.847 210.888,165.957 210.336 C 166.067 209.784,166.503 208.934,166.925 208.447 C 167.348 207.959,167.804 207.003,167.938 206.322 C 168.274 204.615,168.951 202.933,169.301 202.933 C 169.461 202.933,169.965 201.911,170.420 200.662 C 171.098 198.802,171.528 198.234,172.800 197.520 L 174.352 196.647 174.956 197.569 C 175.603 198.556,175.335 215.078,174.315 237.146 C 173.612 252.363,173.654 255.673,174.562 256.337 C 175.190 256.796,178.276 256.891,192.460 256.891 L 209.599 256.891 209.938 255.999 C 210.416 254.741,209.678 214.808,209.146 213.180 C 208.565 211.400,208.569 177.245,209.150 175.481 C 209.581 174.176,210.460 131.642,210.086 130.213 C 209.816 129.180,205.952 128.490,205.116 129.325 M226.124 129.705 C 225.217 130.331,224.917 132.048,224.632 138.224 C 224.442 142.359,224.155 144.847,223.786 145.569 C 223.478 146.170,222.887 148.745,222.472 151.290 C 222.057 153.836,221.540 156.385,221.323 156.954 C 220.973 157.874,221.041 158.032,221.927 158.369 C 224.007 159.160,238.537 158.368,240.507 157.357 C 242.453 156.358,250.443 156.436,251.476 157.464 L 252.345 158.330 252.496 181.120 C 252.590 195.249,252.482 206.585,252.211 210.948 C 251.971 214.819,251.623 220.362,251.438 223.265 C 250.723 234.475,250.505 255.465,251.096 256.234 C 252.200 257.672,286.148 257.906,287.558 256.486 C 288.062 255.978,288.026 248.310,287.413 225.611 C 286.254 182.722,286.413 158.553,287.861 157.105 C 288.825 156.141,297.046 156.415,301.857 157.572 C 305.600 158.472,314.411 158.963,315.580 158.338 C 316.324 157.939,316.386 157.687,316.130 156.071 C 315.971 155.071,315.731 148.710,315.594 141.935 L 315.347 129.619 309.481 129.709 C 303.906 129.794,300.696 130.077,295.411 130.950 C 288.273 132.128,240.022 131.741,236.040 130.473 C 233.856 129.778,226.810 129.232,226.124 129.705 " stroke="none" fill="#fa2e75" fill-rule="evenodd"></path><path id="path2" d="M0.000 195.503 L 0.000 391.007 200.000 391.007 L 400.000 391.007 400.000 195.503 L 400.000 0.000 200.000 0.000 L 0.000 0.000 0.000 195.503 M215.383 26.979 L 216.250 28.152 223.594 28.152 L 230.938 28.152 231.805 29.326 C 232.666 30.490,232.701 30.499,236.497 30.499 C 240.294 30.499,240.329 30.507,241.189 31.672 C 242.045 32.828,242.107 32.845,245.686 32.845 C 249.209 32.845,249.349 32.879,250.440 34.018 C 251.450 35.072,251.807 35.191,253.967 35.191 C 256.145 35.191,256.469 35.301,257.416 36.364 C 258.369 37.433,258.680 37.537,260.935 37.537 C 263.191 37.537,263.501 37.640,264.455 38.710 C 265.220 39.569,265.848 39.883,266.801 39.883 C 267.753 39.883,268.381 40.197,269.147 41.056 C 269.912 41.915,270.540 42.229,271.493 42.229 C 272.445 42.229,273.073 42.543,273.839 43.402 C 274.786 44.464,275.110 44.575,277.287 44.575 L 279.689 44.575 281.978 46.921 C 283.854 48.844,284.497 49.267,285.546 49.267 C 286.478 49.267,287.104 49.585,287.854 50.440 C 288.601 51.290,289.232 51.613,290.151 51.613 C 291.186 51.613,291.840 52.044,293.708 53.959 C 295.547 55.845,296.238 56.305,297.227 56.305 C 298.216 56.305,298.907 56.765,300.746 58.651 C 302.581 60.532,303.277 60.997,304.259 60.997 C 305.303 60.997,306.142 61.662,309.931 65.494 C 313.693 69.298,314.564 69.990,315.585 69.990 C 317.405 69.990,332.356 84.944,332.356 86.764 C 332.356 87.792,333.060 88.669,337.048 92.605 C 341.117 96.621,341.740 97.404,341.740 98.498 C 341.740 99.531,342.165 100.163,344.086 101.992 C 346.026 103.838,346.432 104.447,346.432 105.511 C 346.432 106.575,346.838 107.184,348.778 109.030 C 350.782 110.937,351.124 111.464,351.124 112.645 C 351.124 113.727,351.379 114.215,352.297 114.894 C 353.248 115.597,353.470 116.047,353.470 117.269 C 353.470 118.445,353.685 118.917,354.448 119.417 C 355.188 119.902,355.425 120.396,355.425 121.452 C 355.425 122.512,355.706 123.094,356.598 123.876 C 357.466 124.637,357.771 125.248,357.771 126.222 C 357.771 127.196,358.077 127.807,358.944 128.568 C 360.017 129.509,360.117 129.810,360.117 132.087 C 360.117 134.364,360.218 134.665,361.290 135.606 C 362.158 136.367,362.463 136.979,362.463 137.952 C 362.463 138.926,362.769 139.537,363.636 140.298 C 364.783 141.304,364.809 141.410,364.809 144.990 C 364.809 148.571,364.836 148.676,365.982 149.682 C 367.129 150.689,367.155 150.794,367.155 154.375 C 367.155 157.955,367.182 158.060,368.328 159.067 L 369.501 160.096 369.501 166.105 L 369.501 172.114 370.674 173.143 L 371.848 174.172 371.848 192.007 L 371.848 209.841 370.674 210.887 L 369.501 211.932 369.501 217.902 L 369.501 223.873 368.328 224.902 C 367.182 225.908,367.155 226.014,367.155 229.594 C 367.155 233.175,367.129 233.280,365.982 234.286 C 364.836 235.292,364.809 235.398,364.809 238.978 C 364.809 242.559,364.783 242.664,363.636 243.670 C 362.769 244.432,362.463 245.043,362.463 246.016 C 362.463 246.990,362.158 247.601,361.290 248.362 C 360.218 249.304,360.117 249.605,360.117 251.882 C 360.117 254.159,360.017 254.459,358.944 255.401 C 358.077 256.162,357.771 256.773,357.771 257.747 C 357.771 258.720,357.466 259.332,356.598 260.093 C 355.706 260.875,355.425 261.456,355.425 262.517 C 355.425 263.573,355.188 264.067,354.448 264.552 C 353.685 265.052,353.470 265.524,353.470 266.700 C 353.470 267.921,353.248 268.372,352.297 269.075 C 351.379 269.754,351.124 270.242,351.124 271.324 C 351.124 272.505,350.782 273.032,348.778 274.939 C 346.838 276.785,346.432 277.394,346.432 278.458 C 346.432 279.522,346.026 280.131,344.086 281.977 C 342.165 283.805,341.740 284.438,341.740 285.471 C 341.740 286.565,341.117 287.347,337.048 291.364 C 333.060 295.299,332.356 296.176,332.356 297.205 C 332.356 299.025,317.405 313.978,315.585 313.978 C 314.564 313.978,313.693 314.671,309.931 318.475 C 306.157 322.292,305.300 322.972,304.269 322.972 C 303.257 322.972,302.471 323.560,299.574 326.491 C 296.625 329.474,295.903 330.010,294.835 330.010 C 293.925 330.010,293.290 330.335,292.546 331.183 C 291.785 332.050,291.174 332.356,290.200 332.356 C 289.227 332.356,288.615 332.661,287.854 333.529 C 287.101 334.387,286.479 334.702,285.535 334.702 C 284.468 334.702,283.862 335.105,282.016 337.048 C 280.178 338.982,279.562 339.394,278.508 339.394 C 277.581 339.394,276.943 339.716,276.185 340.567 C 275.232 341.637,274.921 341.740,272.666 341.740 C 270.410 341.740,270.100 341.843,269.147 342.913 C 268.381 343.772,267.753 344.086,266.801 344.086 C 265.848 344.086,265.220 344.400,264.455 345.259 C 263.508 346.322,263.184 346.432,261.006 346.432 C 258.845 346.432,258.488 346.551,257.478 347.605 C 256.463 348.665,256.117 348.778,253.897 348.778 C 251.621 348.778,251.377 348.864,250.574 349.951 C 249.758 351.054,249.548 351.124,247.054 351.124 C 244.561 351.124,244.351 351.194,243.535 352.297 C 242.675 353.461,242.640 353.470,238.843 353.470 C 235.047 353.470,235.012 353.479,234.151 354.643 L 233.284 355.816 225.940 355.816 L 218.596 355.816 217.729 356.989 L 216.862 358.162 197.654 358.162 L 178.446 358.162 177.579 356.989 L 176.712 355.816 169.368 355.816 L 162.024 355.816 161.157 354.643 L 160.289 353.470 155.388 353.470 L 150.487 353.470 149.500 352.297 C 148.597 351.224,148.304 351.124,146.071 351.124 C 143.850 351.124,143.534 351.018,142.584 349.951 C 141.631 348.881,141.320 348.778,139.065 348.778 C 136.809 348.778,136.499 348.675,135.545 347.605 C 134.592 346.535,134.282 346.432,132.026 346.432 C 129.771 346.432,129.460 346.329,128.507 345.259 C 127.742 344.400,127.114 344.086,126.161 344.086 C 125.209 344.086,124.581 343.772,123.815 342.913 C 123.057 342.062,122.419 341.740,121.492 341.740 C 120.561 341.740,119.934 341.421,119.184 340.567 C 118.247 339.499,117.936 339.394,115.714 339.394 L 113.273 339.394 110.984 337.048 C 109.108 335.125,108.465 334.702,107.416 334.702 C 106.484 334.702,105.858 334.383,105.108 333.529 C 104.361 332.678,103.730 332.356,102.810 332.356 C 101.776 332.356,101.122 331.924,99.254 330.010 C 97.415 328.124,96.724 327.664,95.735 327.664 C 94.746 327.664,94.055 327.203,92.216 325.318 C 90.381 323.437,89.685 322.972,88.703 322.972 C 87.659 322.972,86.820 322.306,83.031 318.475 C 79.269 314.671,78.398 313.978,77.377 313.978 C 75.557 313.978,60.606 299.025,60.606 297.205 C 60.606 296.176,59.902 295.299,55.914 291.364 C 51.845 287.347,51.222 286.565,51.222 285.471 C 51.222 284.438,50.797 283.805,48.876 281.977 C 46.937 280.132,46.530 279.522,46.530 278.459 C 46.530 277.409,46.134 276.796,44.379 275.123 C 42.626 273.452,42.229 272.836,42.229 271.790 C 42.229 270.853,41.912 270.228,41.056 269.477 C 40.188 268.716,39.883 268.104,39.883 267.131 C 39.883 266.157,39.577 265.546,38.710 264.785 C 37.842 264.024,37.537 263.412,37.537 262.439 C 37.537 261.465,37.231 260.854,36.364 260.093 C 35.496 259.332,35.191 258.720,35.191 257.747 C 35.191 256.773,34.885 256.162,34.018 255.401 C 32.945 254.459,32.845 254.159,32.845 251.882 C 32.845 249.605,32.744 249.304,31.672 248.362 C 30.599 247.421,30.499 247.120,30.499 244.843 C 30.499 242.566,30.398 242.266,29.326 241.324 C 28.253 240.383,28.152 240.082,28.152 237.805 C 28.152 235.528,28.052 235.228,26.979 234.286 C 25.833 233.280,25.806 233.175,25.806 229.594 C 25.806 226.014,25.780 225.908,24.633 224.902 L 23.460 223.873 23.460 217.864 L 23.460 211.855 22.287 210.826 L 21.114 209.797 21.114 191.984 L 21.114 174.172 22.287 173.143 L 23.460 172.114 23.460 166.105 L 23.460 160.096 24.633 159.067 C 25.780 158.060,25.806 157.955,25.806 154.375 C 25.806 150.794,25.833 150.689,26.979 149.682 C 28.052 148.741,28.152 148.440,28.152 146.163 C 28.152 143.886,28.253 143.586,29.326 142.644 C 30.404 141.698,30.499 141.409,30.499 139.065 C 30.499 136.678,30.573 136.461,31.672 135.679 C 32.775 134.893,32.845 134.689,32.845 132.221 C 32.845 129.795,32.933 129.520,34.018 128.568 C 34.885 127.807,35.191 127.196,35.191 126.222 C 35.191 125.248,35.496 124.637,36.364 123.876 C 37.250 123.098,37.537 122.510,37.537 121.470 C 37.537 120.386,37.786 119.914,38.710 119.257 C 39.640 118.595,39.883 118.131,39.883 117.020 C 39.883 115.822,40.223 115.286,42.229 113.330 C 44.206 111.401,44.575 110.828,44.575 109.684 C 44.575 108.668,44.820 108.166,45.552 107.686 C 46.293 107.201,46.530 106.707,46.530 105.651 C 46.530 104.411,46.918 103.877,50.049 100.817 C 53.015 97.918,53.568 97.183,53.568 96.139 C 53.568 95.063,54.333 94.143,59.433 89.086 C 64.475 84.087,65.298 83.100,65.298 82.061 C 65.298 80.269,73.229 72.336,75.020 72.336 C 76.054 72.336,77.033 71.524,81.856 66.667 C 86.708 61.781,87.655 60.997,88.707 60.997 C 89.684 60.997,90.384 60.529,92.216 58.651 C 94.055 56.765,94.746 56.305,95.735 56.305 C 96.724 56.305,97.415 55.845,99.254 53.959 C 101.122 52.044,101.776 51.613,102.810 51.613 C 103.730 51.613,104.361 51.290,105.108 50.440 C 105.858 49.585,106.484 49.267,107.416 49.267 C 108.465 49.267,109.108 48.844,110.984 46.921 L 113.273 44.575 115.714 44.575 C 117.936 44.575,118.247 44.470,119.184 43.402 C 119.934 42.547,120.561 42.229,121.492 42.229 C 122.419 42.229,123.057 41.907,123.815 41.056 C 124.581 40.197,125.209 39.883,126.161 39.883 C 127.114 39.883,127.742 39.569,128.507 38.710 C 129.460 37.640,129.771 37.537,132.026 37.537 C 134.282 37.537,134.592 37.433,135.545 36.364 C 136.499 35.294,136.809 35.191,139.065 35.191 C 141.320 35.191,141.631 35.087,142.584 34.018 C 143.601 32.876,143.724 32.845,147.206 32.845 C 150.669 32.845,150.818 32.808,151.906 31.672 C 152.997 30.533,153.137 30.499,156.660 30.499 C 160.239 30.499,160.301 30.482,161.157 29.326 L 162.024 28.152 169.368 28.152 L 176.712 28.152 177.579 26.979 L 178.446 25.806 196.481 25.806 L 214.516 25.806 215.383 26.979 " stroke="none" fill="#fcfcfc" fill-rule="evenodd"></path><path id="path3" d="M206.061 127.696 C 205.148 128.203,205.251 128.238,207.625 128.227 L 210.166 128.216 208.602 127.652 C 207.742 127.343,207.038 127.104,207.038 127.121 C 207.038 127.139,206.598 127.398,206.061 127.696 M73.746 128.895 L 72.614 129.508 72.915 139.338 C 73.080 144.745,73.367 152.864,73.552 157.380 C 74.840 188.798,74.844 204.361,73.567 223.265 C 72.938 232.571,72.222 254.010,72.492 255.447 C 72.689 256.497,73.071 257.049,73.898 257.477 C 75.384 258.245,75.574 258.219,75.087 257.308 C 74.555 256.313,74.558 239.377,75.092 229.925 C 76.466 205.626,76.705 189.056,75.938 171.261 C 74.964 148.647,74.562 129.988,75.030 129.113 C 75.571 128.103,75.295 128.056,73.746 128.895 M175.040 129.052 C 173.854 129.984,166.981 143.692,166.003 147.074 C 165.652 148.288,165.019 149.679,164.597 150.166 C 164.174 150.653,163.654 151.700,163.441 152.493 C 163.227 153.285,162.695 154.346,162.259 154.849 C 161.822 155.353,161.365 156.216,161.243 156.768 C 160.799 158.782,143.743 193.206,142.740 194.114 C 141.778 194.985,141.707 195.723,142.554 196.048 C 143.842 196.542,144.333 196.231,145.105 194.428 C 145.543 193.407,146.131 192.307,146.411 191.984 C 146.691 191.662,147.128 190.749,147.382 189.956 C 147.637 189.163,148.161 188.107,148.548 187.610 C 148.935 187.113,149.462 186.057,149.721 185.264 C 149.980 184.471,150.505 183.415,150.888 182.918 C 151.272 182.421,151.793 181.406,152.047 180.663 C 152.300 179.919,152.808 178.864,153.174 178.317 C 153.956 177.150,155.395 173.908,156.481 170.870 C 156.904 169.687,157.571 168.368,157.964 167.937 C 158.357 167.507,158.870 166.436,159.103 165.556 C 159.337 164.676,159.883 163.634,160.317 163.241 C 160.751 162.848,161.216 161.842,161.350 161.004 C 161.484 160.166,162.007 158.872,162.512 158.127 C 163.018 157.383,163.544 156.294,163.683 155.708 C 163.821 155.123,164.342 154.095,164.840 153.426 C 165.338 152.756,165.866 151.701,166.013 151.080 C 166.160 150.459,166.692 149.398,167.196 148.721 C 167.699 148.044,168.279 146.741,168.485 145.824 C 168.691 144.907,169.196 143.701,169.608 143.144 C 170.019 142.587,170.569 141.482,170.831 140.689 C 171.092 139.896,171.622 138.840,172.008 138.343 C 172.395 137.846,172.923 136.790,173.181 135.997 C 173.440 135.204,173.968 134.148,174.354 133.651 C 174.741 133.154,175.281 132.043,175.555 131.183 C 175.828 130.323,176.321 129.311,176.650 128.935 C 177.537 127.919,176.372 128.003,175.040 129.052 M224.694 128.965 C 224.338 129.359,224.047 129.845,224.047 130.046 C 224.047 130.248,223.709 131.044,223.295 131.815 C 222.699 132.927,222.461 134.589,222.148 139.825 C 221.846 144.864,221.518 147.233,220.765 149.804 C 218.815 156.465,219.000 159.126,221.454 159.699 L 222.576 159.960 221.819 158.920 C 221.137 157.985,221.108 157.679,221.528 155.871 C 221.784 154.766,222.209 152.454,222.471 150.733 C 222.733 149.013,223.274 146.813,223.672 145.846 C 224.251 144.439,224.421 142.831,224.515 137.830 C 224.637 131.385,225.027 129.905,226.961 128.549 C 227.186 128.391,226.914 128.260,226.356 128.256 C 225.798 128.253,225.050 128.572,224.694 128.965 M299.424 128.537 C 300.343 128.620,301.751 128.618,302.552 128.534 C 303.353 128.450,302.600 128.383,300.880 128.384 C 299.159 128.386,298.504 128.454,299.424 128.537 M238.538 129.339 C 239.702 130.277,251.483 131.032,253.372 130.289 C 254.680 129.775,252.842 129.539,245.195 129.237 C 242.095 129.115,239.104 128.906,238.548 128.774 L 237.537 128.532 238.538 129.339 M288.368 129.208 C 280.432 129.735,277.595 130.532,283.516 130.572 C 291.367 130.623,296.616 130.158,297.110 129.366 C 297.636 128.524,298.438 128.538,288.368 129.208 M211.315 163.832 C 211.315 169.746,211.370 172.165,211.436 169.208 C 211.502 166.251,211.502 161.413,211.436 158.456 C 211.370 155.499,211.315 157.918,211.315 163.832 M245.820 157.626 C 242.105 158.104,240.198 159.109,243.011 159.107 C 244.086 159.106,245.670 158.852,246.530 158.542 C 248.808 157.721,249.405 157.814,249.748 159.042 C 250.273 160.918,250.049 224.742,249.510 226.983 C 249.198 228.281,249.011 233.594,248.957 242.752 L 248.876 256.564 249.799 257.314 C 250.307 257.727,251.098 258.059,251.558 258.053 C 252.293 258.042,252.315 257.994,251.737 257.657 C 250.610 257.000,250.197 253.548,250.376 246.284 C 250.695 233.288,251.424 219.537,251.908 217.400 C 252.654 214.103,252.608 158.735,251.858 157.831 C 251.268 157.120,250.076 157.079,245.820 157.626 M289.353 157.472 C 288.072 157.712,290.861 158.758,292.669 158.716 C 293.314 158.701,295.425 158.875,297.361 159.103 C 302.443 159.701,302.558 159.691,301.387 158.770 C 300.548 158.111,292.719 156.990,290.714 157.242 C 290.499 157.269,289.886 157.373,289.353 157.472 M288.351 187.292 C 288.351 196.432,288.402 200.171,288.465 195.601 C 288.527 191.031,288.527 183.553,288.465 178.983 C 288.402 174.413,288.351 178.152,288.351 187.292 M173.586 198.079 C 173.337 198.706,172.913 199.746,172.644 200.391 C 172.358 201.077,172.282 201.889,172.462 202.346 C 172.923 203.516,172.884 225.565,172.395 240.609 C 171.939 254.641,172.101 256.867,173.637 257.689 C 174.490 258.146,175.994 258.203,175.284 257.752 C 173.747 256.775,173.089 250.613,173.976 245.520 C 174.327 243.508,175.082 220.077,175.276 205.195 C 175.374 197.696,174.763 195.121,173.586 198.079 M110.285 199.974 C 109.598 200.803,109.909 203.154,110.690 203.028 C 111.116 202.959,111.465 203.439,111.799 204.552 C 112.066 205.446,112.694 206.811,113.194 207.586 C 113.694 208.360,114.226 209.609,114.376 210.362 C 114.526 211.114,114.974 212.085,115.372 212.519 C 115.769 212.952,116.438 214.360,116.859 215.647 C 117.801 218.529,119.263 221.962,120.103 223.265 C 120.450 223.803,120.954 224.946,121.223 225.806 C 121.492 226.667,122.021 227.812,122.399 228.352 C 122.777 228.891,123.298 230.123,123.557 231.089 C 124.179 233.408,126.296 238.547,126.952 239.329 C 127.238 239.669,127.764 240.813,128.122 241.870 C 128.479 242.928,129.166 244.409,129.648 245.161 C 130.130 245.914,130.652 247.146,130.807 247.898 C 130.962 248.651,131.506 249.764,132.015 250.372 C 132.525 250.980,132.942 251.880,132.942 252.371 C 132.942 252.863,133.470 253.929,134.115 254.741 C 134.761 255.553,135.288 256.463,135.288 256.763 C 135.288 257.374,137.793 260.020,138.371 260.020 C 138.576 260.020,139.052 260.138,139.430 260.283 C 140.080 260.532,140.081 260.506,139.444 259.794 C 137.923 258.094,135.679 254.720,135.679 254.134 C 135.679 253.789,135.173 252.729,134.554 251.778 C 133.935 250.827,133.317 249.420,133.181 248.652 C 133.045 247.884,132.495 246.662,131.960 245.937 C 131.425 245.212,130.987 244.345,130.986 244.010 C 130.986 243.675,130.479 242.434,129.860 241.251 C 129.240 240.068,128.615 238.547,128.470 237.870 C 128.325 237.194,127.867 236.334,127.454 235.959 C 127.040 235.585,126.586 234.643,126.446 233.866 C 126.305 233.089,125.788 231.750,125.297 230.890 C 124.806 230.029,124.210 228.589,123.973 227.689 C 123.736 226.789,123.108 225.294,122.577 224.366 C 122.047 223.438,121.610 222.395,121.608 222.049 C 121.605 221.702,121.181 220.798,120.666 220.038 C 120.150 219.278,119.605 218.066,119.453 217.344 C 119.302 216.622,118.688 215.239,118.090 214.272 C 117.491 213.304,116.891 211.884,116.756 211.116 C 116.621 210.347,116.073 209.126,115.538 208.400 C 115.003 207.675,114.565 206.807,114.565 206.470 C 114.565 206.134,114.149 205.068,113.641 204.102 C 113.132 203.136,112.503 201.686,112.242 200.880 C 111.745 199.343,111.069 199.030,110.285 199.974 M211.313 223.851 C 211.313 229.228,211.368 231.481,211.436 228.860 C 211.503 226.238,211.503 221.839,211.436 219.084 C 211.369 216.330,211.313 218.475,211.313 223.851 M255.373 258.756 C 257.300 259.611,280.700 259.623,282.620 258.770 C 283.782 258.254,282.429 258.196,268.980 258.183 C 255.386 258.171,254.169 258.222,255.373 258.756 " stroke="none" fill="#c49e92" fill-rule="evenodd"></path><path id="path4" d="M75.087 129.007 C 74.852 129.446,74.716 132.023,74.763 135.165 L 74.844 140.567 75.056 135.093 L 75.269 129.619 92.253 129.619 L 109.237 129.619 109.587 130.987 C 109.779 131.740,110.282 132.727,110.703 133.180 C 111.125 133.634,111.655 134.690,111.882 135.526 C 112.108 136.363,112.650 137.433,113.085 137.904 C 113.519 138.375,114.031 139.597,114.222 140.618 C 114.413 141.640,114.899 142.838,115.301 143.281 C 115.703 143.724,116.258 144.790,116.534 145.650 C 116.809 146.510,117.348 147.654,117.731 148.192 C 118.114 148.729,118.632 149.959,118.883 150.925 C 119.133 151.891,119.678 153.159,120.094 153.743 C 120.510 154.326,121.046 155.384,121.286 156.092 C 121.526 156.801,122.030 157.822,122.405 158.361 C 122.779 158.901,123.296 160.133,123.553 161.098 C 123.809 162.064,124.355 163.217,124.765 163.661 C 125.176 164.104,125.784 165.383,126.116 166.502 C 126.449 167.622,127.047 169.106,127.445 169.801 C 127.844 170.497,128.300 171.505,128.459 172.043 C 128.619 172.581,129.077 173.441,129.478 173.954 C 129.879 174.468,130.465 175.758,130.782 176.823 C 131.098 177.887,131.693 179.314,132.105 179.995 C 132.516 180.675,132.986 181.669,133.149 182.204 C 133.312 182.739,133.848 183.795,134.340 184.550 C 134.833 185.306,135.353 186.572,135.496 187.364 C 135.640 188.157,136.097 189.113,136.513 189.489 C 136.928 189.865,137.452 190.889,137.676 191.763 C 138.358 194.421,141.044 197.149,142.661 196.825 L 143.973 196.562 142.756 196.050 C 142.086 195.769,141.382 195.135,141.190 194.641 C 140.998 194.148,140.405 193.108,139.872 192.331 C 139.339 191.554,138.678 190.235,138.402 189.400 C 138.127 188.566,137.490 187.108,136.986 186.161 C 136.482 185.214,136.070 184.226,136.070 183.965 C 136.070 183.705,135.638 182.855,135.111 182.077 C 134.583 181.299,133.900 179.818,133.593 178.785 C 133.287 177.752,132.663 176.297,132.208 175.551 C 131.753 174.804,131.381 173.980,131.380 173.718 C 131.379 173.457,130.850 172.411,130.205 171.394 C 129.560 170.376,129.032 169.163,129.032 168.697 C 129.032 168.232,128.620 167.243,128.115 166.500 C 127.611 165.756,127.087 164.707,126.952 164.168 C 126.817 163.629,126.280 162.560,125.759 161.793 C 125.238 161.025,124.686 159.823,124.532 159.122 C 124.378 158.421,123.321 156.040,122.183 153.831 C 121.045 151.621,119.990 149.248,119.838 148.558 C 119.686 147.867,119.054 146.499,118.432 145.519 C 117.811 144.539,117.302 143.491,117.302 143.190 C 117.302 142.889,116.968 142.174,116.560 141.601 C 116.153 141.028,115.624 139.838,115.387 138.955 C 115.149 138.073,114.542 136.743,114.038 136.000 C 113.534 135.257,113.011 134.209,112.876 133.670 C 112.740 133.131,112.185 132.035,111.642 131.235 C 111.099 130.434,110.655 129.618,110.655 129.420 C 110.655 127.937,75.875 127.534,75.087 129.007 M176.634 128.935 C 175.858 129.799,190.239 130.091,201.303 129.435 C 208.626 129.001,209.796 129.105,210.085 130.210 C 210.459 131.641,209.581 174.174,209.150 175.481 C 208.569 177.245,208.565 211.400,209.146 213.180 C 209.682 214.822,210.416 254.742,209.934 256.011 L 209.590 256.915 192.039 256.805 C 178.059 256.718,174.527 256.796,174.677 257.188 C 175.005 258.041,176.150 258.089,193.533 257.978 L 210.526 257.869 211.449 256.500 C 212.272 255.281,212.348 254.834,212.148 252.395 C 211.871 249.010,211.254 228.266,210.856 208.936 C 210.692 200.947,210.690 187.751,210.851 179.610 C 211.311 156.499,211.876 136.856,212.147 134.581 C 212.460 131.961,212.097 129.985,211.122 129.010 C 210.001 127.890,177.634 127.819,176.634 128.935 M226.669 128.812 C 226.302 129.179,226.004 129.511,226.006 129.549 C 226.008 129.587,227.775 129.658,229.933 129.706 C 232.226 129.757,234.701 130.059,235.891 130.433 C 240.049 131.737,288.112 132.154,295.411 130.950 C 300.696 130.077,303.906 129.794,309.481 129.709 L 315.347 129.619 315.594 141.935 C 315.731 148.710,315.971 155.071,316.130 156.071 C 316.386 157.687,316.324 157.939,315.580 158.338 C 314.411 158.963,305.600 158.472,301.857 157.572 C 297.100 156.429,288.825 156.141,287.879 157.087 C 286.655 158.311,286.207 185.147,286.986 210.557 C 288.496 259.748,288.631 256.568,285.017 256.990 C 281.499 257.400,256.005 257.387,253.275 256.972 C 250.949 256.620,250.393 256.916,251.884 257.714 C 253.134 258.383,286.929 258.350,288.550 257.679 C 290.253 256.974,290.334 256.405,290.200 246.139 C 290.088 237.549,289.910 233.675,288.970 219.355 C 288.382 210.395,288.057 184.916,288.356 171.203 L 288.652 157.656 289.816 157.423 C 292.025 156.981,300.277 157.932,301.411 158.759 C 302.817 159.784,316.518 160.109,317.684 159.145 C 318.463 158.501,318.311 150.998,317.450 147.580 C 317.061 146.035,317.186 139.060,317.717 132.701 C 318.097 128.135,317.982 128.090,306.745 128.388 C 298.014 128.621,297.730 128.653,297.023 129.514 L 296.295 130.401 268.089 130.401 L 239.883 130.401 238.652 129.477 C 236.963 128.210,227.781 127.700,226.669 128.812 M224.566 135.484 C 224.568 136.989,224.639 137.557,224.723 136.746 C 224.808 135.935,224.807 134.703,224.720 134.009 C 224.634 133.315,224.564 133.978,224.566 135.484 M243.988 156.764 C 242.375 156.892,240.701 157.198,240.268 157.446 C 239.259 158.022,228.178 158.894,224.504 158.686 C 221.637 158.524,221.253 158.672,222.294 159.536 C 223.307 160.377,239.828 159.674,241.718 158.710 C 242.566 158.277,244.846 157.777,247.181 157.512 C 253.470 156.797,250.973 156.212,243.988 156.764 M172.718 197.549 C 171.543 198.231,171.076 198.864,170.418 200.668 C 169.964 201.914,169.461 202.933,169.301 202.933 C 168.951 202.933,168.274 204.615,167.938 206.322 C 167.804 207.003,167.348 207.959,166.925 208.447 C 166.503 208.934,166.067 209.784,165.957 210.336 C 165.847 210.888,165.333 212.219,164.814 213.294 C 164.295 214.370,163.658 215.952,163.398 216.811 C 163.138 217.670,162.514 219.148,162.010 220.095 C 161.507 221.042,161.095 222.118,161.095 222.486 C 161.095 222.854,160.590 224.103,159.972 225.263 C 159.355 226.422,158.719 227.971,158.559 228.706 C 158.398 229.440,157.848 230.830,157.335 231.794 C 156.822 232.758,156.403 233.848,156.403 234.216 C 156.403 234.584,155.898 235.834,155.280 236.993 C 154.663 238.152,154.029 239.691,153.871 240.413 C 153.714 241.136,153.163 242.348,152.648 243.107 C 152.132 243.867,151.711 244.895,151.711 245.393 C 151.711 246.463,150.938 248.289,150.486 248.289 C 150.311 248.289,149.879 249.301,149.525 250.538 C 149.172 251.774,148.631 253.073,148.323 253.424 C 148.015 253.775,147.586 254.705,147.369 255.490 C 146.459 258.784,141.409 260.318,138.978 258.039 C 137.825 256.959,137.506 257.105,138.282 258.358 C 139.549 260.403,141.607 260.926,145.404 260.167 C 146.917 259.864,149.115 256.959,150.186 253.846 C 150.592 252.665,151.085 251.503,151.282 251.264 C 151.479 251.026,152.021 249.687,152.486 248.289 C 152.952 246.891,153.598 245.337,153.921 244.834 C 154.245 244.332,154.777 243.012,155.103 241.902 C 155.430 240.791,155.927 239.619,156.209 239.296 C 156.491 238.974,156.924 237.918,157.172 236.950 C 157.421 235.982,157.946 234.739,158.341 234.186 C 158.735 233.634,159.346 232.058,159.698 230.684 C 160.050 229.310,160.583 227.915,160.883 227.583 C 161.182 227.251,161.647 226.103,161.917 225.032 C 162.186 223.960,162.725 222.742,163.114 222.324 C 163.504 221.906,163.937 220.954,164.076 220.209 C 164.216 219.464,164.744 218.131,165.249 217.247 C 165.755 216.363,166.171 215.362,166.173 215.022 C 166.176 214.682,166.618 213.539,167.155 212.481 C 167.693 211.423,168.499 209.501,168.946 208.211 C 169.393 206.921,170.097 205.316,170.510 204.646 C 170.923 203.975,171.261 203.167,171.261 202.848 C 171.261 202.530,171.618 201.859,172.054 201.356 C 172.490 200.854,172.954 199.991,173.085 199.439 C 173.557 197.459,173.981 196.961,174.710 197.531 C 175.299 197.992,175.311 197.975,174.830 197.361 C 174.535 196.984,174.271 196.680,174.243 196.685 C 174.216 196.690,173.530 197.079,172.718 197.549 M108.006 199.707 C 107.579 200.592,108.268 226.389,109.305 248.347 C 109.743 257.621,111.210 256.946,90.927 256.805 L 75.304 256.696 75.032 255.718 C 74.765 254.758,74.760 254.757,74.721 255.646 C 74.612 258.180,73.790 258.065,91.882 258.065 C 109.042 258.065,109.986 257.977,110.421 256.355 C 110.728 255.210,110.654 231.933,110.288 214.663 C 109.993 200.762,110.005 200.373,110.754 199.707 C 111.503 199.041,111.480 199.022,109.930 199.022 C 108.799 199.022,108.241 199.221,108.006 199.707 M74.840 240.078 C 74.840 243.412,74.900 244.775,74.973 243.109 C 75.046 241.442,75.046 238.715,74.973 237.048 C 74.900 235.381,74.840 236.745,74.840 240.078 M250.407 246.921 C 250.408 251.007,250.466 252.625,250.536 250.517 C 250.607 248.409,250.606 245.066,250.535 243.088 C 250.465 241.110,250.407 242.835,250.407 246.921 " stroke="none" fill="#f47cb4" fill-rule="evenodd"></path></g></svg>